/* XPM */
static char *coin[] = {
/* columns rows colors chars-per-pixel */
"32 32 168 2 ",
"   c #391801",
".  c #3C1C05",
"X  c #3C1C06",
"o  c #3C1C07",
"O  c #3E1E08",
"+  c #3F1E08",
"@  c #3F1F08",
"#  c #3E1E09",
"$  c #5B380D",
"%  c #5C380D",
"&  c #5C390D",
"*  c #5C380E",
"=  c #5E3B11",
"-  c #5C3B17",
";  c #5E3D17",
":  c #50341F",
">  c #51341F",
",  c #5E3D1A",
"<  c #5E3D1B",
"1  c #5E3E1A",
"2  c #533620",
"3  c #533621",
"4  c #76604F",
"5  c #77604F",
"6  c #766050",
"7  c #776050",
"8  c #796252",
"9  c #796352",
"0  c #796253",
"q  c #796353",
"w  c #7A6556",
"e  c #7B6656",
"r  c #7B6657",
"t  c #7C6657",
"y  c #8B631A",
"u  c #8B631B",
"i  c #8B641A",
"p  c #8B641B",
"a  c #8D651B",
"s  c #8C661B",
"d  c #8C651C",
"f  c #8B6933",
"g  c #8C6935",
"h  c #8D6A34",
"j  c #8D6A35",
"k  c #876F51",
"l  c #886F51",
"z  c #886F52",
"x  c #887058",
"c  c #887158",
"v  c #B88F2C",
"b  c #B98F2C",
"n  c #BF9326",
"m  c #BE9227",
"M  c #BF9327",
"N  c #BA902B",
"B  c #BA902C",
"V  c #FFB500",
"C  c #FFB600",
"Z  c #FEB601",
"A  c #FFB601",
"S  c #FEB602",
"D  c #FFB602",
"F  c #FEB603",
"G  c #FEB805",
"H  c #FEB806",
"J  c #FFB806",
"K  c #FEB807",
"L  c #FEBD12",
"P  c #FEBD13",
"I  c #FEBE12",
"U  c #FEBF14",
"Y  c #FEBE15",
"T  c #FEBF16",
"R  c #FEBF17",
"E  c #C09326",
"W  c #D8A92D",
"Q  c #D9AA2C",
"!  c #D8AA2D",
"~  c #EDBC30",
"^  c #EDBF30",
"/  c #F0BE30",
"(  c #F0BF30",
")  c #FDC019",
"_  c #FDC01A",
"`  c #FDC321",
"'  c #FEC320",
"]  c #FEC321",
"[  c #FEC322",
"{  c #FEC420",
"}  c #FEC421",
"|  c #FEC422",
" . c #FEC423",
".. c #FEC523",
"X. c #FEC92C",
"o. c #FFC92C",
"O. c #FEC92D",
"+. c #FEC92E",
"@. c #FECA2E",
"#. c #FFCA2E",
"$. c #FECA2F",
"%. c #FFCA2F",
"&. c #FFCC32",
"*. c #FFCC33",
"=. c #FFCD33",
"-. c #FFCE33",
";. c #FECC34",
":. c #FFCC34",
">. c #FFCD34",
",. c #FFCE34",
"<. c #FECD3B",
"1. c #FFD034",
"2. c #BA9752",
"3. c #BB9752",
"4. c #BF9B51",
"5. c #A28B6A",
"6. c #A28C6A",
"7. c #A38E73",
"8. c #C09C51",
"9. c #D8B04E",
"0. c #D9B14E",
"q. c #FED049",
"w. c #FED14D",
"e. c #EDC355",
"r. c #EDC356",
"t. c #FED359",
"y. c #FED35A",
"u. c #FED45A",
"i. c #FED55A",
"p. c #FFD55A",
"a. c #FED45B",
"s. c #FFD55D",
"d. c #FFD55E",
"f. c #EEC769",
"g. c #EDC76A",
"h. c #EEC76A",
"j. c #EEC76B",
"k. c #EEC86A",
"l. c #EDCA6B",
"z. c #F0CA6B",
"x. c #FFD872",
"c. c #FFD873",
"v. c #FFD974",
"b. c #FFD975",
"n. c #FFD976",
"m. c #FFDC76",
"M. c #FFDC77",
"N. c #A49589",
"B. c #A4958A",
"V. c #B2A59C",
"C. c #B2A59D",
"Z. c #B1A69D",
"A. c #B3A79E",
"S. c #B3A79F",
"D. c #B9AEA6",
"F. c #BAAEA6",
"G. c #DFDAD6",
"H. c #E0DCD8",
"J. c #E1DCD8",
"K. c #F3F1EF",
"L. c #FAF9F9",
"P. c #FAFAF9",
"I. c #FCFBFB",
"U. c #FDFCFC",
"Y. c #FDFDFC",
"T. c #FDFDFD",
"R. c #FEFEFE",
"E. c #FFFFFF",
/* pixels */
"E.E.E.E.E.E.E.E.E.I.L.I.I.L.I.I.L.I.L.L.I.P.I.E.E.E.E.E.E.E.E.E.",
"E.E.E.E.E.E.E.E.E.N.5 7 7 7 q q 7 q 9 7 9 7 N.I.E.E.E.E.E.E.E.E.",
"E.E.E.E.E.E.E.E.E.w   . X X X X X X X X X   w I.E.E.E.E.E.E.E.E.",
"E.E.E.E.E.E.K.H.G.c - , , , ; = = = = = = $ z G.G.K.E.E.E.E.E.E.",
"E.E.E.E.E.E.D.> 2 3.z.f.k.k.r.^ ^ ~ ~ ~ ~ O.v 2 : D.E.E.E.E.E.E.",
"E.E.E.E.E.E.V.X @ 8.M.v.v.v.d.;.&.&.1.;.;.;.m X o V.E.I.E.E.E.E.",
"E.E.E.K.D.V.7.g g 0.i.t.i.t.w.&.;.;.&.&.;.;.W i i 5.D.D.K.E.E.E.",
"E.E.E.H.2 X f v.c.q.&.&.&.&.o.o.o.o.$.;.;.;.;.;.;.i X 2 G.E.E.E.",
"E.E.E.G.2 @ g c.c.q.&.&.&.) G G K F R ;.&.&.&.&.;.u @ 2 G.E.E.E.",
"I.N.w z 3.8.0.q.q.<.;.&.;.L A A A V U ;.;.;.;.;.&.W E b l w N.I.",
"I.7   - l.M.i.&.&.&.o.| | ) L ) U U R ..[ O.;.&.&.;.1.^ $   5 I.",
"L.q o < k.v.t.&.&.&.| A F | ;.&.;.;...A A [ ;.&.;.&.;.^ = o 7 L.",
"L.7 . , f.c.t.&.;.;.| A A | ;.&.;.;.[ A F [ ;.;.;.&.;.~ = o q L.",
"I.0 . , j.v.d.o.) L ) | ..o.;.;.&.;.o.....R U U o.;.&.^ = o q L.",
"L.q o - r.d.w.o.G A L ;.;.;.&.&.;.&.;.;.;.U A G o.;.&.^ & . q L.",
"L.q o = ~ ;.;.o.G A U &.;.&.;.&.&.;.&.;.&.U A G o.;.&.^ = . q L.",
"I.q . = ^ &.;.o.G A U ;.&.&.;.&.;.;.&.;.;.U A F o.;.&.^ = . 0 I.",
"I.q . = ^ 1.&.o.G A U ;.;.;.&.;.&.&.&.;.;.U A F o.;.;.~ = . 7 I.",
"L.q . = ^ &.;.$.U U ) | | o.;.&.&.;.o...| ) U U &.&.;.~ & o q I.",
"I.7 . = ~ ;.&.&.&.;.[ F F ..;.&.;.;...F A [ ;.;.&.;.&.^ = o 7 I.",
"L.q . = ~ &.&.;.&.;.[ A A ..;.;.&.;...F A [ ;.&.&.;.&.^ = o 7 I.",
"L.5   % ^ 1.;.&.;.;.o.[ ` _ U U U U R [ [ o.;.&.;.&.1.^ $ . 5 L.",
"I.N.0 l B E Q ;.&.;.&.&.;.L A A A A U ;.;.&.;.;.&.Q n N k w N.I.",
"E.U.E.H.2 @ s &.;.&.;.&.;.U G G K F U ;.;.;.&.&.;.d @ 2 G.E.I.E.",
"E.E.E.H.> o i ;...$.;.;.$.$.o.o.X.X.O.;.&.;.&.;.;.p @ 2 G.E.E.E.",
"E.E.E.K.D.V.5.p i W ;.;.&.;.;.;.;.;.;.;.;.;.Q d p 6.V.D.K.E.E.E.",
"E.E.E.E.E.E.V.o : m 1.&.&.&.&.&.;.;.;.;.&.1.m X X V.E.E.E.E.E.E.",
"E.E.E.E.E.E.D.2 > v / ~ ~ ~ ~ ~ ~ ~ ~ ~ ~ O.v > > F.E.E.E.E.E.E.",
"E.E.E.E.E.E.K.H.H.l % & = = = & $ $ = = & & k G.H.K.E.E.E.E.E.E.",
"E.E.E.E.E.E.E.E.Y.t . . X X X . o o X X o   w E.E.E.E.E.E.E.E.E.",
"E.E.E.E.E.E.E.E.Y.N.5 q q q q q q q q q 7 5 N.E.E.E.E.E.E.E.E.E.",
"E.E.E.E.E.E.E.E.E.I.L.L.L.L.L.L.L.L.L.L.L.I.I.E.E.E.E.E.E.E.E.E."
};
