/* XPM */
static char *door[] = {
/* columns rows colors chars-per-pixel */
"32 32 130 2 ",
"   c #2E1A19",
".  c #311D1B",
"X  c #3F181B",
"o  c #37221E",
"O  c #43191D",
"+  c #411A1D",
"@  c #431A1D",
"#  c #431A1E",
"$  c #401C1D",
"%  c #5C1A23",
"&  c #5E1B24",
"*  c #5F1B24",
"=  c #5F1D25",
"-  c #432C25",
";  c #4F2D25",
":  c #4F2D26",
">  c #412C2B",
",  c #422C2B",
"<  c #462E2E",
"1  c #5D2627",
"2  c #5E2727",
"3  c #502D25",
"4  c #502D26",
"5  c #522F26",
"6  c #542D28",
"7  c #46312E",
"8  c #59332D",
"9  c #493230",
"0  c #523C35",
"q  c #503F3D",
"w  c #79282F",
"e  c #6F3B32",
"r  c #683E33",
"t  c #743A33",
"y  c #753A33",
"u  c #703E33",
"i  c #713E33",
"p  c #743C33",
"a  c #773935",
"s  c #743C34",
"d  c #763D34",
"f  c #773D34",
"g  c #654235",
"h  c #674737",
"j  c #694A38",
"k  c #7F4539",
"l  c #70503D",
"z  c #72513E",
"x  c #72523E",
"c  c #73523E",
"v  c #60514F",
"b  c #812E33",
"n  c #812F33",
"m  c #822F33",
"M  c #823335",
"N  c #943E3C",
"B  c #804539",
"V  c #80453A",
"C  c #81453A",
"Z  c #81463A",
"A  c #97403D",
"S  c #825342",
"D  c #B4554A",
"F  c #B7574B",
"G  c #B7574C",
"H  c #B8574C",
"J  c #B65E4F",
"K  c #B75F4F",
"L  c #B95A4D",
"P  c #B7604F",
"I  c #BA614F",
"U  c #B86150",
"Y  c #BB6150",
"T  c #BA6251",
"R  c #BF6051",
"E  c #BC6250",
"W  c #BC6554",
"Q  c #BE6857",
"!  c #9D7E78",
"~  c #C06754",
"^  c #C56755",
"/  c #C96354",
"(  c #CB6656",
")  c #C16854",
"_  c #CF6B58",
"`  c #D16D5A",
"'  c #D86F5C",
"]  c #DA705D",
"[  c #DC715E",
"{  c #C37E61",
"}  c #DA7E63",
"|  c #DF8266",
" . c #C9956B",
".. c #CD9B6F",
"X. c #CE9A6E",
"o. c #D4966E",
"O. c #E08567",
"+. c #E5A377",
"@. c #E8A578",
"#. c #E8A679",
"$. c #E9A679",
"%. c #EAA779",
"&. c #EAA87A",
"*. c #EAAA7B",
"=. c #8B8585",
"-. c #8C8584",
";. c #8C8585",
":. c #8C8685",
">. c #8D8685",
",. c #8D8786",
"<. c #8E8786",
"1. c #8E8886",
"2. c #8E8887",
"3. c #948F8E",
"4. c #958F8E",
"5. c #C2A7A1",
"6. c #C2C5C4",
"7. c #C2C5C5",
"8. c #C3C5C5",
"9. c #C3C6C5",
"0. c #D3D8D8",
"q. c #D3D9D8",
"w. c #E1EAE9",
"e. c #E1EAEA",
"r. c #E2EAEA",
"t. c #E2EBEA",
"y. c #E3ECEB",
"u. c #E3EDEC",
"i. c #E4ECEC",
"p. c #E4EDEC",
/* pixels */
"w.w.w.w.w.w.w.w.w.w.w.w.w.w.w.w.w.w.w.w.w.w.w.w.w.w.w.w.w.w.w.w.",
"w.w.w.w.w.w.w.w.w.w.w.w.w.w.w.w.w.w.w.w.w.w.w.w.w.w.w.w.w.w.w.w.",
"w.w.w.w.w.w.w.w.w.u.y.u.u.u.t.u.u.u.u.t.t.u.t.w.w.w.w.w.w.w.w.w.",
"w.w.w.w.w.w.w.w.q.8.8.8.8.8.8.8.7.7.7.7.8.8.8.q.w.w.w.w.w.w.w.w.",
"w.w.w.w.w.w.w.p.4.> 9 0 0 0 0 0 0 0 0 0 0 0 7 3.u.w.w.w.w.w.w.w.",
"w.w.w.w.w.w.w.p.1.X y  .X.X.X.X.........X...h =.u.w.w.w.w.w.w.w.",
"w.w.w.w.w.w.w.p.1.@ M } | | | | | | | | | *.z =.u.w.w.w.w.w.w.w.",
"w.w.w.w.w.w.w.p.1.@ m / N y e e e e t N _ @.z =.u.w.w.w.w.w.w.w.",
"w.w.w.w.w.w.w.p.<.# m R 2 d k B B B d 1 ^ *.z =.u.t.w.w.w.w.w.w.",
"w.w.w.w.w.w.w.p.<.# m I 5 Y ] ] ] ] J ; ) +.z =.u.w.w.w.w.w.w.w.",
"w.w.w.w.w.w.w.p.1.@ m I 5 I ] ' ] ] J ; ) #.z =.u.w.w.w.w.w.w.w.",
"w.w.w.w.w.w.w.p.1.@ m R 5 I ] ' ' ] J ; ) #.z =.u.w.w.w.w.w.w.w.",
"w.w.w.w.w.w.w.p.1.@ m Y 5 I ] ' ' ] J ; ) #.z =.u.w.w.w.w.w.w.w.",
"w.w.w.w.w.w.w.p.1.@ m Y 5 I ] ' ' ] J ; ) +.l =.u.w.w.w.w.w.w.w.",
"w.w.w.w.w.w.w.p.1.@ m I 5 I ] ' ' ] J 5 Y S - 1.u.t.w.w.w.w.w.w.",
"w.w.w.w.w.w.w.p.1.@ m I 5 I ] ' ' ] J ; P 6   1.u.w.w.w.w.w.w.w.",
"w.w.w.w.w.w.w.p.1.@ m I 5 I ] ' ' ] J ; W ! q =.t.w.w.w.w.w.w.w.",
"w.w.w.w.w.w.w.p.1.@ m I 5 I ] ' ' ] J 5 Q 5.v =.p.w.w.w.w.w.w.w.",
"w.w.w.w.w.w.w.u.1.@ m I 5 I ] ' ' ] J ; P 8 . <.p.w.w.w.w.w.w.w.",
"w.w.w.w.w.w.w.p.1.@ M I 5 I ] ' ' ' J ; I r o <.p.w.w.w.w.w.w.w.",
"w.w.w.w.w.w.w.p.1.@ m I 5 I ] ' ' ] J ; Q o.j <.p.w.w.w.w.w.w.w.",
"w.w.w.w.w.w.w.p.1.@ m I 5 I ] ' ' ] J ; ) #.z =.u.w.w.w.w.w.w.w.",
"w.w.w.w.w.w.w.p.<.@ m I 5 R [ ] ] [ K 6 ) #.z =.p.t.w.w.w.w.w.w.",
"w.w.w.w.w.w.w.u.1.@ m R 2 d B B Z Z y 1 ^ #.z =.t.w.w.w.w.w.w.w.",
"w.w.w.w.w.w.w.p.1.@ m / A d u u u u d A ` *.z =.p.t.w.w.w.w.w.w.",
"w.w.w.w.w.w.w.p.1.@ w D H H H H F F F F L { g <.u.w.w.w.w.w.w.w.",
"w.w.w.w.w.w.w.p.<.@ & = * * * * & & & & & = $ 1.u.w.w.w.w.w.w.w.",
"w.w.w.w.w.w.w.u.4.> < < < < < < < < < < < < > 4.u.t.w.w.w.w.w.w.",
"w.w.w.w.w.w.w.w.0.9.9.9.9.9.9.9.8.9.9.9.9.9.9.q.t.w.w.w.w.w.w.w.",
"w.w.w.w.w.w.w.w.t.p.u.t.t.u.p.t.t.t.u.p.t.t.u.t.w.w.w.w.w.w.w.w.",
"w.w.w.w.w.w.w.w.w.w.w.w.w.w.w.w.w.w.w.w.w.w.w.w.w.w.w.w.w.w.w.w.",
"w.w.w.w.w.w.w.w.w.w.w.w.w.w.w.w.w.w.w.w.w.w.w.w.w.w.w.w.w.w.w.w."
};
