/* XPM */
static char *sand[] = {
/* columns rows colors chars-per-pixel */
"32 32 37 1 ",
"  c #C79339",
". c #CA963D",
"X c #CD993F",
"o c #CC9B45",
"O c #CE9E49",
"+ c #D19E46",
"@ c #D19F49",
"# c #CFA04E",
"$ c #D5A045",
"% c #D1A04B",
"& c #DCA74C",
"* c #DDA94E",
"= c #D2A453",
"- c #D8A752",
"; c #D7A856",
": c #DBAA53",
"> c #D6A85A",
", c #D9AB5C",
"< c #E1AB4F",
"1 c #E2AD52",
"2 c #E2AF58",
"3 c #E5B055",
"4 c #E9B356",
"5 c #E6B35B",
"6 c #EAB65D",
"7 c #E7B763",
"8 c #EAB760",
"9 c #EAB861",
"0 c #E1B66B",
"q c #E5B96F",
"w c #E6BB73",
"e c #E9BE75",
"r c #E7BE78",
"t c #E9BF78",
"y c #EDC176",
"u c #EBC27C",
"i c #EEC683",
/* pixels */
"31O=u6<%Ou73@O%1OoO%<.@t5@oo=iiu",
"OO=tu5$*-uu1O@:@o@:*Xo=e5oo=rt55",
"o=ru64<-w61@O:@o@*X+o=q6@ %tu5@O",
"=ru941%ru5+O@1@@*X=q,q6<.owu5OoO",
"uu643@ru61=q1@@&o%uit83Xo=w7@oo#",
"iu641-u61=e6%@*oOtiu841@0r5OOO=r",
"664<+ru4+Ou5%1Xo=uu84<+q85#oo=ri",
"441+=uu5.Ot4%*.Oru941.@e61Oo=rii",
"<$<%ru94.=w61+o=e64<.ow81@.Orii7",
"4<@%iu61+0:13.Ow641o =u61XoOuiu6",
"1OO=uu6<+t5%1O=e61O.@eu1ooo=ui84",
"OO=ru64XOt4%1%w81+ o#ut+oo=riu64",
"OOru841.Ot5@1%43@.oo=e2.O=uii643",
"O=e8441X=r%@1%31.oO=w5X oriiu61%",
"#w844<X@w2.@1%34.o=w6< oOiiu81%o",
"=r631+O=wo.<@@31o@w61o O=ru81@Oo",
"e631o#ry3 .*%:43@w81o o=ru81@oOO",
"61O.%ru5X %3%343>t1. oOru81OOO=r",
"3+o#ur:*. $31X15ww+ oO=e81@oO=rr",
"1.Orr-&..#41XX2y;o o=we61@OO=rr>",
"Oo=w-*Xo#qqo.*-y1o.=q;51OOO=rr>:",
"o#q=&XOqw%.X&-33@.@w911Ooo=rr=:%",
"@%:XXO0::o$*-w4%o#w841%Oo=rr;:%o",
"1*XOrw-&+%:-y6:.Oq641@OO=ru:*@O@",
"OO=ru51+#q7uu3Xo#y53#oo=ru51@O%1",
"o=ru5Ooru7uu5X o=y63oo=ru5%O%::@",
"=uu5O.%iu>u7:Xo=063#o=uu7OoO:%+o",
"uu5O.%rr>yu3Xo#q;32o=uu5OOO:%oo#",
"u5o Oru=#u53oo=y53##ri5#o#-#oo=w",
"5Ooo=r5O#y63##w643O#uu5oO:#ooo#u",
"1.ooOu5O#u43o#y53%o#u5#o%:#ooo=i",
"1Ooo=e5O#y61%#343%o#y4O%<%oooOri"
};
