/* XPM */
static char *wall[] = {
/* columns rows colors chars-per-pixel */
"32 32 226 2 ",
"   c #593003",
".  c #5A3003",
"X  c #5C3103",
"o  c #5C3203",
"O  c #5D3203",
"+  c #5E3303",
"@  c #5F3303",
"#  c #5D3204",
"$  c #5E3304",
"%  c #603403",
"&  c #613403",
"*  c #623503",
"=  c #633603",
"-  c #643603",
";  c #663703",
":  c #673703",
">  c #603404",
",  c #613404",
"<  c #613504",
"1  c #623504",
"2  c #633604",
"3  c #643604",
"4  c #653704",
"5  c #663704",
"6  c #673704",
"7  c #673803",
"8  c #673804",
"9  c #683803",
"0  c #693903",
"q  c #6A3903",
"w  c #6B3A03",
"e  c #6C3A03",
"r  c #6C3B03",
"t  c #6D3B03",
"y  c #6E3B03",
"u  c #6E3C03",
"i  c #6F3C03",
"p  c #683804",
"a  c #683904",
"s  c #693904",
"d  c #6A3A04",
"f  c #6B3A04",
"g  c #6C3A04",
"h  c #6C3B04",
"j  c #6D3B04",
"k  c #6E3C04",
"l  c #6F3C04",
"z  c #703C03",
"x  c #703D03",
"c  c #713D03",
"v  c #723D03",
"b  c #713E03",
"n  c #723E03",
"m  c #733E03",
"M  c #743E03",
"N  c #743F03",
"B  c #753F03",
"V  c #703D04",
"C  c #713D04",
"Z  c #713E04",
"A  c #723E04",
"S  c #733E04",
"D  c #733F04",
"F  c #743F04",
"G  c #753F04",
"H  c #754003",
"J  c #764003",
"K  c #774003",
"L  c #774103",
"P  c #754004",
"I  c #764004",
"U  c #774004",
"Y  c #774104",
"T  c #784103",
"R  c #794103",
"E  c #794203",
"W  c #7A4203",
"Q  c #7B4203",
"!  c #7B4303",
"~  c #7C4303",
"^  c #7D4403",
"/  c #7E4403",
"(  c #7E4503",
")  c #7F4503",
"_  c #784104",
"`  c #794104",
"'  c #794204",
"]  c #7A4204",
"[  c #7B4304",
"{  c #7C4304",
"}  c #7D4404",
"|  c #7E4404",
" . c #7E4504",
".. c #7F4504",
"X. c #804503",
"o. c #804603",
"O. c #814603",
"+. c #824603",
"@. c #824703",
"#. c #834703",
"$. c #844703",
"%. c #804504",
"&. c #804604",
"*. c #814604",
"=. c #814704",
"-. c #824604",
";. c #824704",
":. c #834704",
">. c #844803",
",. c #854803",
"<. c #864803",
"1. c #864903",
"2. c #874903",
"3. c #844804",
"4. c #864904",
"5. c #874904",
"6. c #874A04",
"7. c #884903",
"8. c #894A02",
"9. c #884A03",
"0. c #894A03",
"q. c #894B03",
"w. c #8A4A02",
"e. c #8A4B02",
"r. c #8A4A03",
"t. c #8A4B03",
"y. c #8B4B03",
"u. c #8C4B03",
"i. c #8B4C03",
"p. c #8C4C03",
"a. c #8D4C03",
"s. c #8D4D03",
"d. c #8E4D03",
"f. c #8F4D03",
"g. c #884A04",
"h. c #894A04",
"j. c #904E03",
"k. c #914F03",
"l. c #924F03",
"z. c #914F04",
"x. c #924F04",
"c. c #935003",
"v. c #945002",
"b. c #955102",
"n. c #945003",
"m. c #945103",
"M. c #955103",
"N. c #965102",
"B. c #965103",
"V. c #965202",
"C. c #975203",
"Z. c #935004",
"A. c #945004",
"S. c #965204",
"D. c #985203",
"F. c #985303",
"G. c #995303",
"H. c #9A5303",
"J. c #9A5403",
"K. c #9B5403",
"L. c #9C5403",
"P. c #9C5503",
"I. c #9D5503",
"U. c #9E5502",
"Y. c #9F5502",
"T. c #9E5503",
"R. c #9F5602",
"E. c #9E5603",
"W. c #9F5603",
"Q. c #985204",
"!. c #995304",
"~. c #9D5504",
"^. c #A05602",
"/. c #A15602",
"(. c #A05702",
"). c #A15702",
"_. c #A15703",
"`. c #A25702",
"'. c #A25802",
"]. c #A35802",
"[. c #A35803",
"{. c #A35903",
"}. c #A45802",
"|. c #A45902",
" X c #A55902",
".X c #A45903",
"XX c #A55903",
"oX c #A65902",
"OX c #A55A03",
"+X c #A65A02",
"@X c #A75A02",
"#X c #A75B02",
"$X c #A65A03",
"%X c #A75A03",
"&X c #A75B03",
"*X c #A55A04",
"=X c #A65A04",
"-X c #A75B04",
";X c #A85B02",
":X c #A95B02",
">X c #A85B03",
",X c #A95B03",
"<X c #AB5C01",
"1X c #A95C02",
"2X c #AA5C02",
"3X c #AB5C02",
"4X c #AC5C01",
"5X c #AC5D01",
"6X c #AD5D01",
"7X c #AE5D01",
"8X c #AE5E01",
"9X c #AF5E01",
"0X c #AF5F01",
"qX c #AE5E02",
"wX c #AF5F02",
"eX c #A85B04",
"rX c #B05F01",
"tX c #B15F01",
"yX c #B05F02",
"uX c #B16001",
"iX c #B26001",
"pX c #B16002",
"aX c #B26002",
"sX c #B36102",
"dX c #B46102",
"fX c #B56202",
/* pixels */
"B N.N.c.N.0 ,.N.N.N.0 ,.N.N.N.j.* l.N.l.p.0 N.N.c.N.W x N.c.c.p.",
"N.rX<X<X5X^ .X<X5X5X-..X5X;X;X;XT rX<X5X.X-.aX<X<X5Xc.p.aX<X5X.X",
"; ] F C T O x T C F $ C T x B B . T B x C $ ] I i J f * T J x I ",
").].q.+..X].]..XB N..X)..XT N..X].).R.t ].].].J.H .X].]..X,.+..X",
"R.).q.,..XR.R.).I G.).).).] G.).).R.J.C ].R.R.J.J .XR.].].q.#..X",
"0 ^ x x ~ ; C T t F 6 C ] t B ] 2 T ] t I 2 ] ] i T j 7 W x x J ",
"N.aXrXrXaX^ .XaXrXrX-.;XrXrXrX;XT aX5XrX<X-.fX5X0XaXN.p.fX5XaX&X",
"J p.q.q.p.7 +.p.q.u.s $.u.q.q.7.* u.q.u.4.8 d.q.q.i.J x p.q.i.#.",
",.p.J i p.q.q.u.; ~ q.,.u.s ~ u.,.q.,.* q.,.q.,.* i.,.q.i.J t i.",
"5X5Xc.c.rX5X<X5X+..X5X5X5X+.;X5X5X5X;XT rX5X5X;X^ aX5X5X5Xc.p.aX",
"B ~ f 7 ~ x B ~ O B B J ~ & C ] x T B O T C T I @ ^ J x ~ 0 7 T ",
",..X.X.X.XB G..X.X.XT G..X}..XR.x .X.X.XR.T .X]..X.Xq.+.;X]..XR.",
"q..X).).).F G.).).}.] K.).).).K.x .X).).R.I .X).).].4.$..X).).J.",
"t T t ; ] 0 C ] * t 0 F F 2 C F 0 B B O F 0 ] C * I j t T 0 6 B ",
"5XrXN.p.aX5XrXrX^ .XrX5XrX-..XrXrX5X;XT aX5X5X.X^ aX5XrXrXj.p.aX",
"p.p.T B p.p.p.p.7 $.u.u.p.f 4.u.u.q.q.; j.p.p.4.; z.p.p.p.] x j.",
"x j.q.q.u.s -.u.q.u.f -.u.q.p.p.* p.u.q.4.8 d.i.7.d.] j p.i.q.,.",
"G.rX5X<XrX-..X5X5X5X-.;XrX5X<X;X] aX5X5X<X:.aX<X5X5XA.p.fX5X5X.X",
"7 T B B T O C ] x B < C ] B B B   ] T x C $ ] I C T f * T J J I ",
").).,.+..X).).).F N.).).).F x.).R.R.R.t ].).).J.C .X].R.].,.^ .X",
").).7.4.}.).R.).F G.).).).B L.).).R.R.j .X).).J.I .X).).].,.,..X",
"t +.] B -.6 F X.C { f F -.F { { 2 { { C ] 8 } } x } C h +.J B ^ ",
"l.fX5XrXrX-..XrXrXrX-.;XrXrXrX5X] fXrXrX<X-.fX5XaXaXN.p.fX5XrX.X",
"B u.,.q.q.2 +.q.q.q.6 -.7.7.7.:.$ 7.7.7.-.8 d.4.q.q.C i p.q.q.:.",
"q.u.T x j.q.u.u.s %.q.u.u.s -.u.q.u.q.& q.q.u.q.* p.q.q.p.J t p.",
"5X5Xl.j.rX5X<XrX%.[.<X<X5X-.;X5X<X<X.X] rX<X<X.X^ aX5X5X5XN.p.aX",
"x T t 7 ~ x B T < z F B { < F B z T ] O ] z ] F & T B x T t 0 T ",
"q.;X.X.X;XB G.;X;X;XB Q.;X}.}.).x .X.X.X).F ;X}..X;Xu.+.<X.X.XR.",
"u.}.K.).).B N.R.).^.F L.K.^.).K.x .X).).G.] .X).R.R.7.$..XR.R.Q.",
"z B h 6 T t F B < z h F B 2 z B 0 B B O F h B F $ ] C h ] f 6 F ",
"<XrXx.z.tX5X5XrX%.[.rX<XrX:..XrX5X5X;XT rX5X5X;X{ fX5X5XrXx.u.aX",
"K.K.:.%.^.K.G.~.z z.L.K.L.F x.K.K.K.A.t ~.G.L.x.z ~.G.G.~.-.{ R."
};
